# File created by Blade
# Date/Time:  Tue Jan 27 19:23:16 2015
# Frame Rate: 120.000 fps
#------------------------------------------------------
:FULLY-SPECIFIED
:DEGREES
2326
root 3.852458 32.344979 0.122554 -3.914948 6.095285 0.978456
Spine 1.191495 3.202920 -0.977884
Head 6.483466 -29.804024 -2.691745
LeftShoulder -5.999188 -5.725281 25.914720
LeftArm -4.459141 44.754662 -103.916812
LeftForeArm 3.334194 -0.000000 14.112293
LeftHand 9.926189 -0.000000 -7.126453
LeftHandThumb1 -26.253704 0.000000 33.147579
RightShoulder -15.757700 -3.702800 -36.097995
RightArm 5.597574 77.498038 47.652204
RightForeArm 28.237732 -0.000000 98.976295
RightHand 29.621599 -0.000000 -11.006247
RightHandThumb1 -24.326973 -0.000000 -32.862282
LeftUpLeg 9.113553 -1.727054 -0.649123
LeftLeg 2.428409 -0.000000 -0.000000
LeftFoot -16.546303 11.596978 -22.940355
LeftToeBase 17.259231 -0.000000 -0.000000
RightUpLeg 9.870914 -12.472164 0.405198
RightLeg 0.254646 -0.000000 -0.000000
RightFoot -13.187761 -14.963140 14.474348
RightToeBase 10.497434 -0.000000 -0.000000
2327
root 3.852269 32.345877 0.123162 -3.938894 5.923212 0.999976
Spine 1.197700 3.186114 -1.008197
Head 6.534909 -29.731120 -2.565553
LeftShoulder -5.995249 -5.723636 25.903117
LeftArm -4.570840 45.031594 -103.964548
LeftForeArm 3.337864 -0.000000 14.333120
LeftHand 9.737528 -0.000000 -7.005574
LeftHandThumb1 -26.253704 0.000000 33.147579
RightShoulder -15.756758 -3.706908 -36.061230
RightArm 5.900115 77.468335 47.937643
RightForeArm 28.249248 -0.000000 99.063094
RightHand 29.579459 -0.000000 -10.895425
RightHandThumb1 -24.326973 -0.000000 -32.862282
LeftUpLeg 9.175429 -1.779190 -0.705901
LeftLeg 2.413179 -0.000000 -0.000000
LeftFoot -16.617942 11.839741 -22.954713
LeftToeBase 17.301231 -0.000000 -0.000000
RightUpLeg 9.863152 -12.361036 0.383299
RightLeg 0.279483 -0.000000 -0.000000
RightFoot -13.181297 -14.897064 14.459188
RightToeBase 10.577159 -0.000000 -0.000000
2328
root 3.849194 32.344930 0.121887 -3.958845 5.752260 0.981445
Spine 1.200626 3.185775 -1.001780
Head 6.566236 -29.693781 -2.409945
LeftShoulder -5.973216 -5.699616 25.911592
LeftArm -4.641171 45.299956 -104.010203
LeftForeArm 3.370590 -0.000000 14.520154
LeftHand 9.832334 -0.000000 -6.976037
LeftHandThumb1 -26.253704 0.000000 33.147579
RightShoulder -15.761776 -3.668184 -36.043676
RightArm 6.119657 77.373190 48.155511
RightForeArm 28.151887 -0.000000 99.135105
RightHand 29.564672 0.000000 -10.915849
RightHandThumb1 -24.326973 -0.000000 -32.862282
LeftUpLeg 9.211282 -1.636527 -0.677970
LeftLeg 2.421554 -0.000000 -0.000000
LeftFoot -16.657864 11.856841 -22.954017
LeftToeBase 17.213262 -0.000000 -0.000000
RightUpLeg 9.840225 -12.243874 0.410534
RightLeg 0.308130 -0.000000 -0.000000
RightFoot -13.162694 -14.853365 14.432945
RightToeBase 10.550677 -0.000000 -0.000000
2329
root 3.841484 32.343367 0.121444 -3.988042 5.560222 0.930934
Spine 1.214368 3.211915 -0.962978
Head 6.567871 -29.644031 -2.233015
LeftShoulder -5.986902 -5.621231 25.932740
LeftArm -4.608053 45.607366 -103.996447
LeftForeArm 3.331993 -0.000000 14.700359
LeftHand 9.777699 -0.000000 -7.359382
LeftHandThumb1 -26.253704 0.000000 33.147579
RightShoulder -15.787928 -3.641076 -36.029688
RightArm 6.362472 77.225828 48.379199
RightForeArm 28.165755 -0.000000 99.164299
RightHand 29.658642 0.000000 -10.928640
RightHandThumb1 -24.326973 -0.000000 -32.862282
LeftUpLeg 9.218643 -1.447417 -0.599992
LeftLeg 2.511514 -0.000000 -0.000000
LeftFoot -16.758537 11.799460 -22.989680
LeftToeBase 17.276905 -0.000000 -0.000000
RightUpLeg 9.824103 -12.032124 0.496312
RightLeg 0.323854 -0.000000 -0.000000
RightFoot -13.145443 -14.902250 14.404062
RightToeBase 10.568069 -0.000000 -0.000000
2330
root 3.840087 32.343738 0.119873 -4.003933 5.363145 0.939687
Spine 1.215217 3.257038 -0.983386
Head 6.588351 -29.636136 -2.067071
LeftShoulder -5.987177 -5.620506 25.927277
LeftArm -4.671017 45.941116 -104.040863
LeftForeArm 3.374904 -0.000000 14.863767
LeftHand 9.786689 0.000000 -7.101135
LeftHandThumb1 -26.253704 0.000000 33.147579
RightShoulder -15.784306 -3.636895 -35.993451
RightArm 6.590822 77.136794 48.560392
RightForeArm 28.136109 -0.000000 99.210386
RightHand 29.640445 0.000000 -10.976357
RightHandThumb1 -24.326973 -0.000000 -32.862282
LeftUpLeg 9.283948 -1.508050 -0.641582
LeftLeg 2.470086 -0.000000 -0.000000
LeftFoot -16.839580 12.022655 -23.081189
LeftToeBase 17.266307 -0.000000 -0.000000
RightUpLeg 9.788811 -11.875402 0.498499
RightLeg 0.367709 -0.000000 -0.000000
RightFoot -13.133159 -14.852626 14.374577
RightToeBase 10.569309 -0.000000 -0.000000
2331
root 3.835184 32.343040 0.117683 -4.017490 5.161283 0.920391
Spine 1.214803 3.314092 -0.978487
Head 6.584555 -29.644606 -1.893475
LeftShoulder -5.981436 -5.630942 25.942171
LeftArm -4.744096 46.228434 -104.102145
LeftForeArm 3.363971 0.000000 15.036792
LeftHand 9.776675 -0.000000 -7.157459
LeftHandThumb1 -26.253704 0.000000 33.147579
RightShoulder -15.779000 -3.678863 -35.963167
RightArm 6.947257 77.028546 48.900509
RightForeArm 28.067542 0.000000 99.221800
RightHand 29.565251 -0.000000 -10.916901
RightHandThumb1 -24.326973 -0.000000 -32.862282
LeftUpLeg 9.317966 -1.471926 -0.629194
LeftLeg 2.478194 -0.000000 -0.000000
LeftFoot -16.925596 12.144755 -23.134551
LeftToeBase 17.235489 -0.000000 -0.000000
RightUpLeg 9.751072 -11.735055 0.533485
RightLeg 0.401290 -0.000000 -0.000000
RightFoot -13.111202 -14.807678 14.330137
RightToeBase 10.610854 -0.000000 -0.000000
